<svg xmlns="http://www.w3.org/2000/svg" viewBox="0 0 1200 360" preserveAspectRatio="xMaxYMid slice" role="img" aria-label="A field of glowing dots resembling prosthetic phosphene vision">
<circle cx="555.5" cy="34.1" r="2.12" fill="#BA7517" fill-opacity="0.07"/>
<circle cx="566.3" cy="65.6" r="1.87" fill="#BA7517" fill-opacity="0.07"/>
<circle cx="561.9" cy="119.6" r="1.64" fill="#BA7517" fill-opacity="0.11"/>
<circle cx="561.2" cy="137.5" r="1.89" fill="#BA7517" fill-opacity="0.11"/>
<circle cx="566.1" cy="170.7" r="1.81" fill="#BA7517" fill-opacity="0.06"/>
<circle cx="565.8" cy="192.4" r="1.9" fill="#BA7517" fill-opacity="0.09"/>
<circle cx="564.1" cy="223.8" r="2.25" fill="#BA7517" fill-opacity="0.09"/>
<circle cx="562.0" cy="239.5" r="1.85" fill="#BA7517" fill-opacity="0.11"/>
<circle cx="561.8" cy="295.5" r="1.8" fill="#BA7517" fill-opacity="0.11"/>
<circle cx="557.5" cy="318.8" r="1.89" fill="#BA7517" fill-opacity="0.05"/>
<circle cx="559.2" cy="350.2" r="1.72" fill="#BA7517" fill-opacity="0.05"/>
<circle cx="583.9" cy="18.6" r="2.19" fill="#BA7517" fill-opacity="0.12"/>
<circle cx="588.4" cy="37.4" r="2.2" fill="#BA7517" fill-opacity="0.07"/>
<circle cx="586.8" cy="58.7" r="1.7" fill="#BA7517" fill-opacity="0.07"/>
<circle cx="589.6" cy="94.8" r="2.21" fill="#BA7517" fill-opacity="0.08"/>
<circle cx="584.8" cy="117.9" r="2.08" fill="#BA7517" fill-opacity="0.14"/>
<circle cx="590.6" cy="139.9" r="2.03" fill="#BA7517" fill-opacity="0.06"/>
<circle cx="588.0" cy="163.4" r="1.88" fill="#BA7517" fill-opacity="0.1"/>
<circle cx="581.3" cy="190.6" r="1.97" fill="#BA7517" fill-opacity="0.09"/>
<circle cx="589.4" cy="217.4" r="2.23" fill="#BA7517" fill-opacity="0.15"/>
<circle cx="592.0" cy="246.6" r="2.03" fill="#BA7517" fill-opacity="0.12"/>
<circle cx="590.5" cy="268.4" r="2.11" fill="#BA7517" fill-opacity="0.11"/>
<circle cx="587.2" cy="293.1" r="1.67" fill="#BA7517" fill-opacity="0.06"/>
<circle cx="585.2" cy="322.4" r="2.07" fill="#BA7517" fill-opacity="0.11"/>
<circle cx="584.6" cy="352.3" r="2.04" fill="#BA7517" fill-opacity="0.07"/>
<circle cx="607.9" cy="15.9" r="2.33" fill="#BA7517" fill-opacity="0.12"/>
<circle cx="617.8" cy="40.8" r="2.23" fill="#BA7517" fill-opacity="0.15"/>
<circle cx="614.4" cy="60.8" r="2.35" fill="#BA7517" fill-opacity="0.12"/>
<circle cx="609.9" cy="95.7" r="2.0" fill="#BA7517" fill-opacity="0.12"/>
<circle cx="607.1" cy="114.4" r="2.18" fill="#BA7517" fill-opacity="0.08"/>
<circle cx="617.8" cy="146.4" r="2.03" fill="#BA7517" fill-opacity="0.14"/>
<circle cx="608.4" cy="169.4" r="2.23" fill="#BA7517" fill-opacity="0.13"/>
<circle cx="611.5" cy="197.5" r="1.95" fill="#BA7517" fill-opacity="0.09"/>
<circle cx="610.3" cy="220.0" r="1.84" fill="#BA7517" fill-opacity="0.16"/>
<circle cx="614.6" cy="247.5" r="1.77" fill="#BA7517" fill-opacity="0.09"/>
<circle cx="613.8" cy="274.0" r="2.21" fill="#BA7517" fill-opacity="0.16"/>
<circle cx="612.0" cy="294.8" r="2.31" fill="#BA7517" fill-opacity="0.11"/>
<circle cx="610.7" cy="318.8" r="2.33" fill="#BA7517" fill-opacity="0.12"/>
<circle cx="609.3" cy="341.5" r="2.02" fill="#BA7517" fill-opacity="0.06"/>
<circle cx="640.4" cy="9.1" r="2.18" fill="#BA7517" fill-opacity="0.09"/>
<circle cx="640.9" cy="40.9" r="1.84" fill="#BA7517" fill-opacity="0.16"/>
<circle cx="638.9" cy="68.3" r="2.03" fill="#BA7517" fill-opacity="0.19"/>
<circle cx="643.3" cy="91.7" r="2.0" fill="#BA7517" fill-opacity="0.2"/>
<circle cx="641.5" cy="119.8" r="1.92" fill="#BA7517" fill-opacity="0.14"/>
<circle cx="635.5" cy="137.3" r="1.93" fill="#BA7517" fill-opacity="0.08"/>
<circle cx="640.5" cy="162.4" r="2.36" fill="#BA7517" fill-opacity="0.18"/>
<circle cx="642.9" cy="196.5" r="2.5" fill="#BA7517" fill-opacity="0.17"/>
<circle cx="644.6" cy="220.1" r="1.92" fill="#BA7517" fill-opacity="0.2"/>
<circle cx="634.4" cy="239.1" r="2.06" fill="#BA7517" fill-opacity="0.1"/>
<circle cx="638.6" cy="272.2" r="1.85" fill="#BA7517" fill-opacity="0.16"/>
<circle cx="638.0" cy="296.2" r="1.85" fill="#BA7517" fill-opacity="0.11"/>
<circle cx="640.3" cy="319.9" r="2.09" fill="#BA7517" fill-opacity="0.14"/>
<circle cx="644.7" cy="352.5" r="2.25" fill="#BA7517" fill-opacity="0.07"/>
<circle cx="667.9" cy="10.4" r="2.19" fill="#BA7517" fill-opacity="0.09"/>
<circle cx="663.5" cy="41.4" r="2.14" fill="#BA7517" fill-opacity="0.2"/>
<circle cx="662.7" cy="64.3" r="2.45" fill="#BA7517" fill-opacity="0.18"/>
<circle cx="666.1" cy="87.6" r="2.52" fill="#BA7517" fill-opacity="0.13"/>
<circle cx="665.4" cy="110.3" r="2.1" fill="#BA7517" fill-opacity="0.15"/>
<circle cx="667.2" cy="136.3" r="2.02" fill="#BA7517" fill-opacity="0.13"/>
<circle cx="664.9" cy="173.0" r="2.21" fill="#BA7517" fill-opacity="0.17"/>
<circle cx="670.4" cy="188.0" r="2.53" fill="#BA7517" fill-opacity="0.14"/>
<circle cx="659.3" cy="221.8" r="1.92" fill="#BA7517" fill-opacity="0.13"/>
<circle cx="662.2" cy="243.8" r="2.26" fill="#BA7517" fill-opacity="0.13"/>
<circle cx="659.9" cy="266.6" r="2.18" fill="#BA7517" fill-opacity="0.21"/>
<circle cx="664.9" cy="290.7" r="2.53" fill="#BA7517" fill-opacity="0.11"/>
<circle cx="667.5" cy="321.5" r="2.11" fill="#BA7517" fill-opacity="0.08"/>
<circle cx="668.6" cy="346.4" r="2.44" fill="#BA7517" fill-opacity="0.15"/>
<circle cx="693.0" cy="14.5" r="1.97" fill="#BA7517" fill-opacity="0.09"/>
<circle cx="694.5" cy="37.5" r="2.57" fill="#BA7517" fill-opacity="0.23"/>
<circle cx="696.3" cy="62.8" r="2.55" fill="#BA7517" fill-opacity="0.26"/>
<circle cx="696.0" cy="85.8" r="2.34" fill="#BA7517" fill-opacity="0.23"/>
<circle cx="697.0" cy="121.6" r="2.37" fill="#BA7517" fill-opacity="0.13"/>
<circle cx="688.6" cy="141.1" r="2.51" fill="#BA7517" fill-opacity="0.14"/>
<circle cx="686.8" cy="163.2" r="2.09" fill="#BA7517" fill-opacity="0.17"/>
<circle cx="689.9" cy="197.6" r="2.18" fill="#BA7517" fill-opacity="0.24"/>
<circle cx="685.5" cy="222.5" r="2.43" fill="#BA7517" fill-opacity="0.25"/>
<circle cx="686.9" cy="241.1" r="2.66" fill="#BA7517" fill-opacity="0.24"/>
<circle cx="685.7" cy="266.2" r="2.16" fill="#BA7517" fill-opacity="0.15"/>
<circle cx="694.4" cy="294.2" r="2.08" fill="#BA7517" fill-opacity="0.21"/>
<circle cx="691.5" cy="327.1" r="1.97" fill="#BA7517" fill-opacity="0.18"/>
<circle cx="686.6" cy="348.9" r="2.12" fill="#BA7517" fill-opacity="0.13"/>
<circle cx="717.1" cy="13.8" r="2.21" fill="#BA7517" fill-opacity="0.26"/>
<circle cx="718.2" cy="35.7" r="2.59" fill="#BA7517" fill-opacity="0.19"/>
<circle cx="713.0" cy="64.1" r="2.1" fill="#BA7517" fill-opacity="0.22"/>
<circle cx="720.6" cy="89.0" r="2.58" fill="#BA7517" fill-opacity="0.2"/>
<circle cx="720.9" cy="110.4" r="2.2" fill="#BA7517" fill-opacity="0.2"/>
<circle cx="716.0" cy="139.6" r="2.37" fill="#BA7517" fill-opacity="0.11"/>
<circle cx="716.8" cy="169.0" r="2.43" fill="#BA7517" fill-opacity="0.28"/>
<circle cx="717.8" cy="195.4" r="2.83" fill="#BA7517" fill-opacity="0.28"/>
<circle cx="723.2" cy="216.2" r="2.83" fill="#BA7517" fill-opacity="0.14"/>
<circle cx="712.3" cy="243.7" r="2.47" fill="#BA7517" fill-opacity="0.23"/>
<circle cx="716.1" cy="275.1" r="2.47" fill="#BA7517" fill-opacity="0.15"/>
<circle cx="721.3" cy="291.4" r="2.42" fill="#BA7517" fill-opacity="0.16"/>
<circle cx="718.2" cy="317.9" r="2.06" fill="#BA7517" fill-opacity="0.17"/>
<circle cx="712.4" cy="345.2" r="2.63" fill="#BA7517" fill-opacity="0.11"/>
<circle cx="740.6" cy="10.2" r="2.64" fill="#BA7517" fill-opacity="0.25"/>
<circle cx="740.6" cy="42.5" r="2.45" fill="#BA7517" fill-opacity="0.23"/>
<circle cx="745.0" cy="61.2" r="2.84" fill="#BA7517" fill-opacity="0.17"/>
<circle cx="742.7" cy="94.8" r="2.35" fill="#BA7517" fill-opacity="0.15"/>
<circle cx="738.1" cy="118.6" r="2.26" fill="#BA7517" fill-opacity="0.23"/>
<circle cx="738.0" cy="145.3" r="2.87" fill="#BA7517" fill-opacity="0.22"/>
<circle cx="738.0" cy="168.2" r="2.77" fill="#BA7517" fill-opacity="0.14"/>
<circle cx="744.8" cy="194.2" r="2.95" fill="#BA7517" fill-opacity="0.17"/>
<circle cx="738.8" cy="213.3" r="2.31" fill="#BA7517" fill-opacity="0.25"/>
<circle cx="738.3" cy="243.8" r="2.84" fill="#BA7517" fill-opacity="0.24"/>
<circle cx="746.1" cy="264.8" r="2.81" fill="#BA7517" fill-opacity="0.24"/>
<circle cx="738.9" cy="298.8" r="2.34" fill="#BA7517" fill-opacity="0.15"/>
<circle cx="737.5" cy="324.5" r="2.71" fill="#BA7517" fill-opacity="0.19"/>
<circle cx="743.1" cy="343.0" r="2.25" fill="#BA7517" fill-opacity="0.13"/>
<circle cx="774.9" cy="9.3" r="2.5" fill="#BA7517" fill-opacity="0.13"/>
<circle cx="764.5" cy="37.7" r="2.73" fill="#BA7517" fill-opacity="0.25"/>
<circle cx="765.7" cy="60.0" r="2.79" fill="#BA7517" fill-opacity="0.23"/>
<circle cx="768.9" cy="90.9" r="2.47" fill="#BA7517" fill-opacity="0.33"/>
<circle cx="766.8" cy="115.6" r="3.02" fill="#BA7517" fill-opacity="0.25"/>
<circle cx="770.2" cy="143.4" r="2.97" fill="#BA7517" fill-opacity="0.23"/>
<circle cx="773.6" cy="164.7" r="2.62" fill="#BA7517" fill-opacity="0.16"/>
<circle cx="767.9" cy="197.5" r="2.84" fill="#BA7517" fill-opacity="0.19"/>
<circle cx="771.3" cy="224.0" r="2.92" fill="#BA7517" fill-opacity="0.16"/>
<circle cx="767.6" cy="239.5" r="2.94" fill="#BA7517" fill-opacity="0.27"/>
<circle cx="770.6" cy="264.6" r="2.59" fill="#BA7517" fill-opacity="0.33"/>
<circle cx="771.2" cy="298.4" r="2.55" fill="#BA7517" fill-opacity="0.17"/>
<circle cx="767.5" cy="316.6" r="2.71" fill="#BA7517" fill-opacity="0.12"/>
<circle cx="768.5" cy="351.6" r="2.34" fill="#BA7517" fill-opacity="0.11"/>
<circle cx="791.8" cy="18.2" r="2.97" fill="#BA7517" fill-opacity="0.3"/>
<circle cx="795.7" cy="33.8" r="2.55" fill="#BA7517" fill-opacity="0.22"/>
<circle cx="790.0" cy="65.1" r="2.5" fill="#BA7517" fill-opacity="0.2"/>
<circle cx="795.8" cy="95.2" r="2.83" fill="#BA7517" fill-opacity="0.38"/>
<circle cx="790.9" cy="118.9" r="2.89" fill="#BA7517" fill-opacity="0.17"/>
<circle cx="790.7" cy="147.3" r="2.83" fill="#BA7517" fill-opacity="0.28"/>
<circle cx="792.9" cy="167.8" r="2.84" fill="#BA7517" fill-opacity="0.39"/>
<circle cx="792.2" cy="193.0" r="2.79" fill="#BA7517" fill-opacity="0.37"/>
<circle cx="797.3" cy="223.6" r="3.08" fill="#BA7517" fill-opacity="0.22"/>
<circle cx="796.0" cy="240.0" r="3.13" fill="#BA7517" fill-opacity="0.15"/>
<circle cx="795.2" cy="269.3" r="2.82" fill="#BA7517" fill-opacity="0.35"/>
<circle cx="795.7" cy="293.1" r="2.55" fill="#BA7517" fill-opacity="0.3"/>
<circle cx="795.3" cy="324.5" r="2.39" fill="#BA7517" fill-opacity="0.25"/>
<circle cx="792.1" cy="349.5" r="2.29" fill="#BA7517" fill-opacity="0.26"/>
<circle cx="827.7" cy="8.5" r="2.51" fill="#BA7517" fill-opacity="0.18"/>
<circle cx="821.1" cy="40.0" r="2.62" fill="#BA7517" fill-opacity="0.36"/>
<circle cx="824.1" cy="59.5" r="2.74" fill="#BA7517" fill-opacity="0.3"/>
<circle cx="820.0" cy="84.6" r="2.69" fill="#BA7517" fill-opacity="0.34"/>
<circle cx="824.9" cy="113.8" r="3.12" fill="#BA7517" fill-opacity="0.32"/>
<circle cx="821.6" cy="145.9" r="2.89" fill="#BA7517" fill-opacity="0.42"/>
<circle cx="819.7" cy="171.7" r="2.97" fill="#BA7517" fill-opacity="0.2"/>
<circle cx="820.7" cy="198.6" r="3.12" fill="#BA7517" fill-opacity="0.19"/>
<circle cx="824.8" cy="221.3" r="3.31" fill="#BA7517" fill-opacity="0.15"/>
<circle cx="819.5" cy="248.5" r="2.86" fill="#BA7517" fill-opacity="0.32"/>
<circle cx="825.8" cy="272.1" r="3.05" fill="#BA7517" fill-opacity="0.23"/>
<circle cx="821.8" cy="298.3" r="3.01" fill="#BA7517" fill-opacity="0.28"/>
<circle cx="817.7" cy="321.4" r="2.93" fill="#BA7517" fill-opacity="0.13"/>
<circle cx="825.0" cy="351.2" r="2.69" fill="#BA7517" fill-opacity="0.13"/>
<circle cx="847.6" cy="8.3" r="3.2" fill="#BA7517" fill-opacity="0.19"/>
<circle cx="852.1" cy="35.4" r="3.07" fill="#BA7517" fill-opacity="0.38"/>
<circle cx="846.4" cy="66.0" r="2.87" fill="#BA7517" fill-opacity="0.22"/>
<circle cx="841.9" cy="91.9" r="3.24" fill="#BA7517" fill-opacity="0.33"/>
<circle cx="847.9" cy="114.9" r="3.31" fill="#BA7517" fill-opacity="0.26"/>
<circle cx="846.3" cy="142.6" r="3.14" fill="#BA7517" fill-opacity="0.41"/>
<circle cx="850.1" cy="161.9" r="3.44" fill="#BA7517" fill-opacity="0.26"/>
<circle cx="843.6" cy="187.5" r="3.33" fill="#BA7517" fill-opacity="0.17"/>
<circle cx="843.1" cy="218.1" r="3.3" fill="#BA7517" fill-opacity="0.29"/>
<circle cx="847.5" cy="244.5" r="3.25" fill="#BA7517" fill-opacity="0.17"/>
<circle cx="851.0" cy="271.5" r="3.07" fill="#BA7517" fill-opacity="0.38"/>
<circle cx="850.4" cy="299.9" r="2.57" fill="#BA7517" fill-opacity="0.31"/>
<circle cx="852.4" cy="327.3" r="2.52" fill="#BA7517" fill-opacity="0.19"/>
<circle cx="845.9" cy="342.3" r="2.47" fill="#BA7517" fill-opacity="0.22"/>
<circle cx="870.6" cy="6.9" r="2.8" fill="#BA7517" fill-opacity="0.26"/>
<circle cx="876.7" cy="37.2" r="3.37" fill="#BA7517" fill-opacity="0.21"/>
<circle cx="878.6" cy="66.6" r="3.09" fill="#BA7517" fill-opacity="0.24"/>
<circle cx="873.3" cy="88.9" r="3.17" fill="#BA7517" fill-opacity="0.18"/>
<circle cx="877.1" cy="118.0" r="3.43" fill="#BA7517" fill-opacity="0.47"/>
<circle cx="877.1" cy="145.9" r="3.56" fill="#BA7517" fill-opacity="0.5"/>
<circle cx="872.9" cy="169.1" r="3.6" fill="#BA7517" fill-opacity="0.41"/>
<circle cx="876.5" cy="192.2" r="3.19" fill="#BA7517" fill-opacity="0.25"/>
<circle cx="870.9" cy="220.8" r="3.0" fill="#BA7517" fill-opacity="0.42"/>
<circle cx="874.3" cy="248.4" r="2.86" fill="#BA7517" fill-opacity="0.28"/>
<circle cx="875.2" cy="268.3" r="2.94" fill="#BA7517" fill-opacity="0.21"/>
<circle cx="868.0" cy="291.5" r="2.71" fill="#BA7517" fill-opacity="0.27"/>
<circle cx="868.0" cy="322.0" r="3.12" fill="#BA7517" fill-opacity="0.39"/>
<circle cx="871.8" cy="352.2" r="2.56" fill="#BA7517" fill-opacity="0.15"/>
<circle cx="894.1" cy="7.6" r="3.18" fill="#BA7517" fill-opacity="0.32"/>
<circle cx="899.7" cy="42.2" r="3.43" fill="#BA7517" fill-opacity="0.3"/>
<circle cx="901.3" cy="64.7" r="3.17" fill="#BA7517" fill-opacity="0.23"/>
<circle cx="899.3" cy="93.9" r="3.17" fill="#BA7517" fill-opacity="0.26"/>
<circle cx="903.8" cy="110.6" r="3.19" fill="#BA7517" fill-opacity="0.38"/>
<circle cx="902.0" cy="142.6" r="3.65" fill="#BA7517" fill-opacity="0.24"/>
<circle cx="898.9" cy="165.0" r="3.69" fill="#BA7517" fill-opacity="0.52"/>
<circle cx="897.7" cy="195.0" r="3.41" fill="#BA7517" fill-opacity="0.24"/>
<circle cx="895.0" cy="220.3" r="3.4" fill="#BA7517" fill-opacity="0.49"/>
<circle cx="894.5" cy="244.4" r="3.18" fill="#BA7517" fill-opacity="0.33"/>
<circle cx="895.8" cy="267.3" r="2.85" fill="#BA7517" fill-opacity="0.31"/>
<circle cx="902.1" cy="292.6" r="2.79" fill="#BA7517" fill-opacity="0.25"/>
<circle cx="897.6" cy="326.6" r="2.67" fill="#BA7517" fill-opacity="0.23"/>
<circle cx="898.1" cy="352.5" r="2.75" fill="#BA7517" fill-opacity="0.16"/>
<circle cx="922.6" cy="15.0" r="2.81" fill="#BA7517" fill-opacity="0.3"/>
<circle cx="930.4" cy="36.5" r="3.15" fill="#BA7517" fill-opacity="0.39"/>
<circle cx="930.5" cy="59.0" r="3.11" fill="#BA7517" fill-opacity="0.26"/>
<circle cx="923.3" cy="93.9" r="3.27" fill="#BA7517" fill-opacity="0.36"/>
<circle cx="926.2" cy="119.9" r="3.44" fill="#BA7517" fill-opacity="0.41"/>
<circle cx="928.0" cy="142.8" r="3.49" fill="#BA7517" fill-opacity="0.36"/>
<circle cx="921.7" cy="166.4" r="3.42" fill="#BA7517" fill-opacity="0.54"/>
<circle cx="924.5" cy="194.1" r="3.25" fill="#BA7517" fill-opacity="0.42"/>
<circle cx="925.4" cy="221.4" r="3.11" fill="#BA7517" fill-opacity="0.21"/>
<circle cx="929.2" cy="249.1" r="3.0" fill="#BA7517" fill-opacity="0.21"/>
<circle cx="927.6" cy="267.4" r="2.9" fill="#BA7517" fill-opacity="0.39"/>
<circle cx="925.6" cy="291.7" r="3.27" fill="#BA7517" fill-opacity="0.27"/>
<circle cx="926.2" cy="325.7" r="3.09" fill="#BA7517" fill-opacity="0.39"/>
<circle cx="930.3" cy="343.3" r="2.83" fill="#BA7517" fill-opacity="0.28"/>
<circle cx="953.7" cy="8.2" r="3.02" fill="#BA7517" fill-opacity="0.43"/>
<circle cx="955.6" cy="43.9" r="3.16" fill="#BA7517" fill-opacity="0.48"/>
<circle cx="956.5" cy="70.2" r="3.51" fill="#BA7517" fill-opacity="0.23"/>
<circle cx="954.9" cy="89.5" r="3.17" fill="#BA7517" fill-opacity="0.29"/>
<circle cx="951.1" cy="120.9" r="3.31" fill="#BA7517" fill-opacity="0.35"/>
<circle cx="953.6" cy="140.7" r="3.49" fill="#BA7517" fill-opacity="0.43"/>
<circle cx="949.6" cy="161.6" r="3.65" fill="#BA7517" fill-opacity="0.52"/>
<circle cx="949.1" cy="192.8" r="3.5" fill="#BA7517" fill-opacity="0.42"/>
<circle cx="957.0" cy="221.9" r="3.3" fill="#BA7517" fill-opacity="0.3"/>
<circle cx="953.5" cy="240.2" r="3.03" fill="#BA7517" fill-opacity="0.51"/>
<circle cx="952.2" cy="267.3" r="2.94" fill="#BA7517" fill-opacity="0.35"/>
<circle cx="948.9" cy="301.6" r="2.94" fill="#BA7517" fill-opacity="0.4"/>
<circle cx="951.6" cy="315.8" r="2.87" fill="#BA7517" fill-opacity="0.2"/>
<circle cx="958.0" cy="344.9" r="2.68" fill="#BA7517" fill-opacity="0.22"/>
<circle cx="973.6" cy="18.8" r="3.46" fill="#BA7517" fill-opacity="0.4"/>
<circle cx="982.3" cy="42.0" r="3.02" fill="#BA7517" fill-opacity="0.26"/>
<circle cx="975.5" cy="59.1" r="3.46" fill="#BA7517" fill-opacity="0.24"/>
<circle cx="978.2" cy="84.1" r="3.62" fill="#BA7517" fill-opacity="0.3"/>
<circle cx="982.5" cy="118.5" r="3.75" fill="#BA7517" fill-opacity="0.46"/>
<circle cx="978.9" cy="140.0" r="3.35" fill="#BA7517" fill-opacity="0.41"/>
<circle cx="972.7" cy="164.3" r="3.25" fill="#BA7517" fill-opacity="0.38"/>
<circle cx="973.2" cy="189.8" r="3.81" fill="#BA7517" fill-opacity="0.34"/>
<circle cx="978.1" cy="222.6" r="3.47" fill="#BA7517" fill-opacity="0.46"/>
<circle cx="976.1" cy="243.0" r="3.44" fill="#BA7517" fill-opacity="0.3"/>
<circle cx="982.5" cy="273.5" r="3.01" fill="#BA7517" fill-opacity="0.28"/>
<circle cx="972.4" cy="296.7" r="2.82" fill="#BA7517" fill-opacity="0.24"/>
<circle cx="975.9" cy="318.2" r="3.21" fill="#BA7517" fill-opacity="0.22"/>
<circle cx="979.3" cy="344.5" r="2.8" fill="#BA7517" fill-opacity="0.36"/>
<circle cx="1009.4" cy="8.3" r="3.28" fill="#BA7517" fill-opacity="0.35"/>
<circle cx="1007.1" cy="38.4" r="3.32" fill="#BA7517" fill-opacity="0.46"/>
<circle cx="1006.6" cy="59.2" r="3.27" fill="#BA7517" fill-opacity="0.25"/>
<circle cx="1004.9" cy="85.1" r="3.26" fill="#BA7517" fill-opacity="0.45"/>
<circle cx="1004.0" cy="116.0" r="3.29" fill="#BA7517" fill-opacity="0.5"/>
<circle cx="1005.1" cy="142.7" r="3.33" fill="#BA7517" fill-opacity="0.44"/>
<circle cx="1001.7" cy="166.8" r="3.57" fill="#BA7517" fill-opacity="0.42"/>
<circle cx="1000.0" cy="192.2" r="3.24" fill="#BA7517" fill-opacity="0.4"/>
<circle cx="999.6" cy="223.7" r="3.39" fill="#BA7517" fill-opacity="0.2"/>
<circle cx="1001.9" cy="238.7" r="3.11" fill="#BA7517" fill-opacity="0.28"/>
<circle cx="1003.2" cy="274.9" r="3.14" fill="#BA7517" fill-opacity="0.21"/>
<circle cx="1006.7" cy="297.2" r="2.98" fill="#BA7517" fill-opacity="0.18"/>
<circle cx="1001.7" cy="326.2" r="2.91" fill="#BA7517" fill-opacity="0.29"/>
<circle cx="1004.1" cy="347.0" r="3.12" fill="#BA7517" fill-opacity="0.2"/>
<circle cx="1033.1" cy="12.6" r="3.33" fill="#BA7517" fill-opacity="0.33"/>
<circle cx="1035.9" cy="39.9" r="3.22" fill="#BA7517" fill-opacity="0.19"/>
<circle cx="1032.4" cy="62.3" r="3.19" fill="#BA7517" fill-opacity="0.41"/>
<circle cx="1031.8" cy="91.4" r="3.65" fill="#BA7517" fill-opacity="0.42"/>
<circle cx="1032.9" cy="118.2" r="3.2" fill="#BA7517" fill-opacity="0.44"/>
<circle cx="1031.8" cy="142.9" r="3.6" fill="#BA7517" fill-opacity="0.22"/>
<circle cx="1027.2" cy="167.0" r="3.58" fill="#BA7517" fill-opacity="0.38"/>
<circle cx="1033.6" cy="192.5" r="3.36" fill="#BA7517" fill-opacity="0.52"/>
<circle cx="1031.2" cy="224.5" r="3.5" fill="#BA7517" fill-opacity="0.3"/>
<circle cx="1035.9" cy="239.3" r="3.42" fill="#BA7517" fill-opacity="0.45"/>
<circle cx="1030.9" cy="273.5" r="2.98" fill="#BA7517" fill-opacity="0.45"/>
<circle cx="1030.3" cy="297.1" r="3.48" fill="#BA7517" fill-opacity="0.38"/>
<circle cx="1034.1" cy="325.4" r="3.02" fill="#BA7517" fill-opacity="0.18"/>
<circle cx="1035.4" cy="352.5" r="2.86" fill="#BA7517" fill-opacity="0.36"/>
<circle cx="1059.8" cy="13.2" r="3.21" fill="#BA7517" fill-opacity="0.36"/>
<circle cx="1060.9" cy="41.1" r="3.19" fill="#BA7517" fill-opacity="0.48"/>
<circle cx="1056.4" cy="66.2" r="2.94" fill="#BA7517" fill-opacity="0.36"/>
<circle cx="1062.0" cy="87.8" r="2.97" fill="#BA7517" fill-opacity="0.35"/>
<circle cx="1052.8" cy="120.9" r="3.22" fill="#BA7517" fill-opacity="0.29"/>
<circle cx="1060.3" cy="138.3" r="3.41" fill="#BA7517" fill-opacity="0.42"/>
<circle cx="1061.3" cy="166.9" r="3.19" fill="#BA7517" fill-opacity="0.3"/>
<circle cx="1054.9" cy="186.9" r="3.12" fill="#BA7517" fill-opacity="0.23"/>
<circle cx="1054.3" cy="221.8" r="3.22" fill="#BA7517" fill-opacity="0.5"/>
<circle cx="1053.5" cy="241.8" r="3.27" fill="#BA7517" fill-opacity="0.39"/>
<circle cx="1051.9" cy="270.3" r="2.97" fill="#BA7517" fill-opacity="0.26"/>
<circle cx="1059.9" cy="291.0" r="3.34" fill="#BA7517" fill-opacity="0.3"/>
<circle cx="1057.0" cy="325.9" r="3.36" fill="#BA7517" fill-opacity="0.25"/>
<circle cx="1051.0" cy="351.9" r="2.62" fill="#BA7517" fill-opacity="0.27"/>
<circle cx="1079.7" cy="18.7" r="3.27" fill="#BA7517" fill-opacity="0.38"/>
<circle cx="1086.3" cy="32.6" r="3.1" fill="#BA7517" fill-opacity="0.26"/>
<circle cx="1087.5" cy="69.2" r="3.55" fill="#BA7517" fill-opacity="0.22"/>
<circle cx="1083.3" cy="87.7" r="3.2" fill="#BA7517" fill-opacity="0.21"/>
<circle cx="1082.9" cy="115.2" r="3.6" fill="#BA7517" fill-opacity="0.29"/>
<circle cx="1082.3" cy="139.1" r="3.13" fill="#BA7517" fill-opacity="0.44"/>
<circle cx="1081.7" cy="162.4" r="3.66" fill="#BA7517" fill-opacity="0.27"/>
<circle cx="1084.1" cy="193.1" r="3.42" fill="#BA7517" fill-opacity="0.41"/>
<circle cx="1082.9" cy="217.0" r="2.94" fill="#BA7517" fill-opacity="0.23"/>
<circle cx="1078.1" cy="243.1" r="3.36" fill="#BA7517" fill-opacity="0.18"/>
<circle cx="1080.7" cy="266.8" r="3.18" fill="#BA7517" fill-opacity="0.27"/>
<circle cx="1079.1" cy="299.9" r="2.8" fill="#BA7517" fill-opacity="0.31"/>
<circle cx="1077.6" cy="326.1" r="2.88" fill="#BA7517" fill-opacity="0.32"/>
<circle cx="1085.2" cy="341.7" r="3.27" fill="#BA7517" fill-opacity="0.39"/>
<circle cx="1110.7" cy="7.5" r="3.25" fill="#BA7517" fill-opacity="0.28"/>
<circle cx="1109.8" cy="35.1" r="2.78" fill="#BA7517" fill-opacity="0.23"/>
<circle cx="1109.0" cy="60.5" r="3.42" fill="#BA7517" fill-opacity="0.3"/>
<circle cx="1113.5" cy="89.9" r="2.93" fill="#BA7517" fill-opacity="0.42"/>
<circle cx="1114.1" cy="120.1" r="3.49" fill="#BA7517" fill-opacity="0.33"/>
<circle cx="1106.3" cy="147.2" r="3.55" fill="#BA7517" fill-opacity="0.28"/>
<circle cx="1112.7" cy="172.4" r="2.94" fill="#BA7517" fill-opacity="0.41"/>
<circle cx="1106.1" cy="194.7" r="3.37" fill="#BA7517" fill-opacity="0.47"/>
<circle cx="1103.2" cy="216.7" r="3.0" fill="#BA7517" fill-opacity="0.29"/>
<circle cx="1105.4" cy="244.5" r="3.01" fill="#BA7517" fill-opacity="0.29"/>
<circle cx="1107.6" cy="275.4" r="3.29" fill="#BA7517" fill-opacity="0.34"/>
<circle cx="1113.9" cy="290.1" r="2.78" fill="#BA7517" fill-opacity="0.41"/>
<circle cx="1105.1" cy="324.3" r="3.07" fill="#BA7517" fill-opacity="0.36"/>
<circle cx="1108.4" cy="349.8" r="2.69" fill="#BA7517" fill-opacity="0.26"/>
<circle cx="1131.4" cy="8.2" r="3.29" fill="#BA7517" fill-opacity="0.16"/>
<circle cx="1140.2" cy="36.8" r="2.87" fill="#BA7517" fill-opacity="0.27"/>
<circle cx="1138.2" cy="64.2" r="3.35" fill="#BA7517" fill-opacity="0.21"/>
<circle cx="1139.9" cy="84.6" r="2.92" fill="#BA7517" fill-opacity="0.3"/>
<circle cx="1136.5" cy="114.0" r="3.02" fill="#BA7517" fill-opacity="0.26"/>
<circle cx="1136.1" cy="141.5" r="3.3" fill="#BA7517" fill-opacity="0.32"/>
<circle cx="1134.5" cy="172.5" r="3.38" fill="#BA7517" fill-opacity="0.31"/>
<circle cx="1139.9" cy="194.3" r="3.36" fill="#BA7517" fill-opacity="0.35"/>
<circle cx="1137.3" cy="214.9" r="2.9" fill="#BA7517" fill-opacity="0.29"/>
<circle cx="1129.0" cy="246.5" r="2.95" fill="#BA7517" fill-opacity="0.26"/>
<circle cx="1129.1" cy="264.3" r="2.99" fill="#BA7517" fill-opacity="0.36"/>
<circle cx="1134.0" cy="297.8" r="3.14" fill="#BA7517" fill-opacity="0.41"/>
<circle cx="1131.4" cy="327.3" r="2.98" fill="#BA7517" fill-opacity="0.2"/>
<circle cx="1136.5" cy="344.6" r="2.94" fill="#BA7517" fill-opacity="0.37"/>
<circle cx="1163.4" cy="8.5" r="2.74" fill="#BA7517" fill-opacity="0.36"/>
<circle cx="1162.3" cy="41.4" r="2.8" fill="#BA7517" fill-opacity="0.24"/>
<circle cx="1158.8" cy="70.0" r="3.01" fill="#BA7517" fill-opacity="0.34"/>
<circle cx="1161.6" cy="91.9" r="2.75" fill="#BA7517" fill-opacity="0.23"/>
<circle cx="1156.2" cy="116.7" r="3.43" fill="#BA7517" fill-opacity="0.34"/>
<circle cx="1162.3" cy="145.7" r="3.08" fill="#BA7517" fill-opacity="0.45"/>
<circle cx="1159.9" cy="166.8" r="3.27" fill="#BA7517" fill-opacity="0.27"/>
<circle cx="1161.8" cy="188.3" r="3.09" fill="#BA7517" fill-opacity="0.44"/>
<circle cx="1163.9" cy="219.1" r="3.09" fill="#BA7517" fill-opacity="0.33"/>
<circle cx="1156.2" cy="239.9" r="2.94" fill="#BA7517" fill-opacity="0.37"/>
<circle cx="1156.4" cy="273.8" r="3.17" fill="#BA7517" fill-opacity="0.36"/>
<circle cx="1159.5" cy="291.3" r="2.74" fill="#BA7517" fill-opacity="0.35"/>
<circle cx="1162.9" cy="323.8" r="2.5" fill="#BA7517" fill-opacity="0.21"/>
<circle cx="1162.0" cy="350.6" r="3.12" fill="#BA7517" fill-opacity="0.27"/>
<circle cx="1183.7" cy="15.6" r="2.87" fill="#BA7517" fill-opacity="0.24"/>
<circle cx="1184.6" cy="35.3" r="2.93" fill="#BA7517" fill-opacity="0.28"/>
<circle cx="1191.9" cy="65.5" r="2.98" fill="#BA7517" fill-opacity="0.27"/>
<circle cx="1188.5" cy="88.9" r="3.05" fill="#BA7517" fill-opacity="0.22"/>
<circle cx="1185.6" cy="110.2" r="2.85" fill="#BA7517" fill-opacity="0.2"/>
<circle cx="1189.2" cy="143.3" r="3.18" fill="#BA7517" fill-opacity="0.28"/>
<circle cx="1184.9" cy="165.4" r="3.1" fill="#BA7517" fill-opacity="0.36"/>
<circle cx="1186.1" cy="197.5" r="2.98" fill="#BA7517" fill-opacity="0.16"/>
<circle cx="1191.3" cy="223.1" r="3.13" fill="#BA7517" fill-opacity="0.2"/>
<circle cx="1187.4" cy="249.5" r="3.01" fill="#BA7517" fill-opacity="0.23"/>
<circle cx="1188.7" cy="275.9" r="2.77" fill="#BA7517" fill-opacity="0.22"/>
<circle cx="1182.5" cy="297.9" r="3.07" fill="#BA7517" fill-opacity="0.16"/>
<circle cx="1182.7" cy="317.7" r="2.78" fill="#BA7517" fill-opacity="0.36"/>
<circle cx="1190.0" cy="345.3" r="2.59" fill="#BA7517" fill-opacity="0.18"/>
</svg>