<svg xmlns="http://www.w3.org/2000/svg" viewBox="0 0 1200 340" preserveAspectRatio="xMidYMid slice" role="img" aria-label="A field of glowing dots resembling prosthetic phosphene vision">
<circle cx="276.5" cy="19.8" r="1.96" fill="#BA7517" fill-opacity="0.07"/>
<circle cx="276.8" cy="41.1" r="1.55" fill="#BA7517" fill-opacity="0.08"/>
<circle cx="268.1" cy="122.5" r="1.84" fill="#BA7517" fill-opacity="0.09"/>
<circle cx="270.9" cy="140.2" r="1.66" fill="#BA7517" fill-opacity="0.07"/>
<circle cx="269.1" cy="169.2" r="2.1" fill="#BA7517" fill-opacity="0.07"/>
<circle cx="280.5" cy="196.8" r="2.15" fill="#BA7517" fill-opacity="0.07"/>
<circle cx="272.3" cy="248.1" r="1.39" fill="#BA7517" fill-opacity="0.08"/>
<circle cx="301.2" cy="13.5" r="1.92" fill="#BA7517" fill-opacity="0.11"/>
<circle cx="303.0" cy="44.5" r="1.66" fill="#BA7517" fill-opacity="0.09"/>
<circle cx="306.8" cy="60.5" r="1.97" fill="#BA7517" fill-opacity="0.12"/>
<circle cx="293.6" cy="96.2" r="1.91" fill="#BA7517" fill-opacity="0.12"/>
<circle cx="303.3" cy="122.1" r="1.87" fill="#BA7517" fill-opacity="0.07"/>
<circle cx="300.1" cy="148.5" r="2.13" fill="#BA7517" fill-opacity="0.13"/>
<circle cx="301.2" cy="175.5" r="2.01" fill="#BA7517" fill-opacity="0.12"/>
<circle cx="298.0" cy="216.8" r="1.86" fill="#BA7517" fill-opacity="0.12"/>
<circle cx="301.8" cy="250.2" r="1.79" fill="#BA7517" fill-opacity="0.11"/>
<circle cx="293.0" cy="278.8" r="1.73" fill="#BA7517" fill-opacity="0.1"/>
<circle cx="322.8" cy="16.3" r="2.09" fill="#BA7517" fill-opacity="0.08"/>
<circle cx="332.7" cy="39.1" r="1.93" fill="#BA7517" fill-opacity="0.1"/>
<circle cx="328.7" cy="69.1" r="2.08" fill="#BA7517" fill-opacity="0.13"/>
<circle cx="320.2" cy="86.6" r="2.14" fill="#BA7517" fill-opacity="0.09"/>
<circle cx="319.9" cy="140.6" r="2.11" fill="#BA7517" fill-opacity="0.13"/>
<circle cx="328.5" cy="167.1" r="1.94" fill="#BA7517" fill-opacity="0.12"/>
<circle cx="325.6" cy="190.8" r="1.68" fill="#BA7517" fill-opacity="0.16"/>
<circle cx="325.5" cy="252.9" r="1.86" fill="#BA7517" fill-opacity="0.16"/>
<circle cx="322.8" cy="270.6" r="1.62" fill="#BA7517" fill-opacity="0.15"/>
<circle cx="327.2" cy="295.8" r="2.27" fill="#BA7517" fill-opacity="0.11"/>
<circle cx="320.9" cy="331.4" r="2.13" fill="#BA7517" fill-opacity="0.09"/>
<circle cx="355.0" cy="9.3" r="2.01" fill="#BA7517" fill-opacity="0.18"/>
<circle cx="345.5" cy="32.3" r="1.96" fill="#BA7517" fill-opacity="0.12"/>
<circle cx="349.4" cy="60.4" r="1.88" fill="#BA7517" fill-opacity="0.11"/>
<circle cx="356.9" cy="84.6" r="2.4" fill="#BA7517" fill-opacity="0.18"/>
<circle cx="346.9" cy="123.7" r="2.42" fill="#BA7517" fill-opacity="0.16"/>
<circle cx="349.2" cy="142.1" r="2.52" fill="#BA7517" fill-opacity="0.12"/>
<circle cx="353.4" cy="168.0" r="1.89" fill="#BA7517" fill-opacity="0.13"/>
<circle cx="345.8" cy="190.6" r="1.86" fill="#BA7517" fill-opacity="0.18"/>
<circle cx="358.3" cy="218.8" r="2.1" fill="#BA7517" fill-opacity="0.1"/>
<circle cx="347.8" cy="246.7" r="2.36" fill="#BA7517" fill-opacity="0.19"/>
<circle cx="356.5" cy="276.4" r="2.42" fill="#BA7517" fill-opacity="0.18"/>
<circle cx="355.4" cy="326.2" r="2.08" fill="#BA7517" fill-opacity="0.15"/>
<circle cx="375.3" cy="6.8" r="1.78" fill="#BA7517" fill-opacity="0.21"/>
<circle cx="377.9" cy="37.0" r="2.37" fill="#BA7517" fill-opacity="0.11"/>
<circle cx="384.9" cy="62.0" r="2.04" fill="#BA7517" fill-opacity="0.18"/>
<circle cx="379.1" cy="90.1" r="1.9" fill="#BA7517" fill-opacity="0.09"/>
<circle cx="374.2" cy="123.4" r="1.94" fill="#BA7517" fill-opacity="0.15"/>
<circle cx="383.9" cy="150.8" r="1.92" fill="#BA7517" fill-opacity="0.15"/>
<circle cx="374.0" cy="164.3" r="1.82" fill="#BA7517" fill-opacity="0.12"/>
<circle cx="374.6" cy="192.8" r="2.53" fill="#BA7517" fill-opacity="0.16"/>
<circle cx="381.8" cy="221.1" r="2.22" fill="#BA7517" fill-opacity="0.14"/>
<circle cx="376.5" cy="246.2" r="1.95" fill="#BA7517" fill-opacity="0.07"/>
<circle cx="384.8" cy="269.4" r="2.28" fill="#BA7517" fill-opacity="0.15"/>
<circle cx="383.3" cy="296.8" r="1.9" fill="#BA7517" fill-opacity="0.1"/>
<circle cx="376.9" cy="326.2" r="2.36" fill="#BA7517" fill-opacity="0.19"/>
<circle cx="407.3" cy="44.8" r="2.38" fill="#BA7517" fill-opacity="0.16"/>
<circle cx="397.4" cy="63.9" r="2.57" fill="#BA7517" fill-opacity="0.25"/>
<circle cx="409.3" cy="98.1" r="2.0" fill="#BA7517" fill-opacity="0.12"/>
<circle cx="399.5" cy="118.0" r="2.71" fill="#BA7517" fill-opacity="0.21"/>
<circle cx="407.5" cy="145.9" r="2.32" fill="#BA7517" fill-opacity="0.23"/>
<circle cx="405.1" cy="163.6" r="2.1" fill="#BA7517" fill-opacity="0.24"/>
<circle cx="410.2" cy="198.2" r="2.02" fill="#BA7517" fill-opacity="0.13"/>
<circle cx="400.9" cy="224.2" r="1.94" fill="#BA7517" fill-opacity="0.21"/>
<circle cx="398.3" cy="248.8" r="2.15" fill="#BA7517" fill-opacity="0.18"/>
<circle cx="401.6" cy="300.2" r="2.33" fill="#BA7517" fill-opacity="0.24"/>
<circle cx="409.7" cy="326.6" r="1.97" fill="#BA7517" fill-opacity="0.1"/>
<circle cx="436.9" cy="15.9" r="1.98" fill="#BA7517" fill-opacity="0.13"/>
<circle cx="430.4" cy="41.7" r="2.19" fill="#BA7517" fill-opacity="0.16"/>
<circle cx="432.8" cy="71.3" r="2.03" fill="#BA7517" fill-opacity="0.12"/>
<circle cx="428.2" cy="90.4" r="2.17" fill="#BA7517" fill-opacity="0.23"/>
<circle cx="434.6" cy="121.0" r="2.22" fill="#BA7517" fill-opacity="0.19"/>
<circle cx="437.0" cy="141.2" r="2.25" fill="#BA7517" fill-opacity="0.28"/>
<circle cx="426.5" cy="173.6" r="2.85" fill="#BA7517" fill-opacity="0.13"/>
<circle cx="430.4" cy="191.8" r="2.38" fill="#BA7517" fill-opacity="0.12"/>
<circle cx="432.7" cy="228.6" r="2.34" fill="#BA7517" fill-opacity="0.1"/>
<circle cx="426.4" cy="255.1" r="1.97" fill="#BA7517" fill-opacity="0.09"/>
<circle cx="424.3" cy="273.1" r="2.69" fill="#BA7517" fill-opacity="0.26"/>
<circle cx="433.7" cy="307.7" r="2.18" fill="#BA7517" fill-opacity="0.27"/>
<circle cx="426.0" cy="333.0" r="1.83" fill="#BA7517" fill-opacity="0.21"/>
<circle cx="458.8" cy="11.4" r="2.35" fill="#BA7517" fill-opacity="0.16"/>
<circle cx="451.9" cy="32.3" r="2.37" fill="#BA7517" fill-opacity="0.14"/>
<circle cx="462.9" cy="60.1" r="2.32" fill="#BA7517" fill-opacity="0.34"/>
<circle cx="454.5" cy="96.0" r="2.51" fill="#BA7517" fill-opacity="0.3"/>
<circle cx="450.2" cy="117.3" r="2.93" fill="#BA7517" fill-opacity="0.17"/>
<circle cx="452.2" cy="141.9" r="2.15" fill="#BA7517" fill-opacity="0.32"/>
<circle cx="455.3" cy="174.4" r="2.17" fill="#BA7517" fill-opacity="0.28"/>
<circle cx="450.0" cy="190.0" r="2.33" fill="#BA7517" fill-opacity="0.32"/>
<circle cx="460.0" cy="227.9" r="2.36" fill="#BA7517" fill-opacity="0.16"/>
<circle cx="462.9" cy="250.1" r="2.75" fill="#BA7517" fill-opacity="0.13"/>
<circle cx="460.1" cy="306.6" r="2.85" fill="#BA7517" fill-opacity="0.22"/>
<circle cx="449.9" cy="323.2" r="2.79" fill="#BA7517" fill-opacity="0.17"/>
<circle cx="489.0" cy="11.5" r="2.58" fill="#BA7517" fill-opacity="0.14"/>
<circle cx="482.5" cy="45.2" r="2.93" fill="#BA7517" fill-opacity="0.12"/>
<circle cx="485.9" cy="69.9" r="2.8" fill="#BA7517" fill-opacity="0.31"/>
<circle cx="480.2" cy="89.0" r="2.94" fill="#BA7517" fill-opacity="0.18"/>
<circle cx="476.7" cy="113.5" r="2.46" fill="#BA7517" fill-opacity="0.3"/>
<circle cx="476.5" cy="137.3" r="2.53" fill="#BA7517" fill-opacity="0.24"/>
<circle cx="489.3" cy="175.4" r="2.53" fill="#BA7517" fill-opacity="0.39"/>
<circle cx="476.8" cy="190.5" r="2.86" fill="#BA7517" fill-opacity="0.22"/>
<circle cx="481.9" cy="218.6" r="2.79" fill="#BA7517" fill-opacity="0.19"/>
<circle cx="485.0" cy="251.9" r="2.8" fill="#BA7517" fill-opacity="0.32"/>
<circle cx="477.3" cy="279.4" r="2.64" fill="#BA7517" fill-opacity="0.15"/>
<circle cx="480.8" cy="304.1" r="2.32" fill="#BA7517" fill-opacity="0.12"/>
<circle cx="479.0" cy="322.1" r="2.58" fill="#BA7517" fill-opacity="0.3"/>
<circle cx="506.3" cy="11.6" r="2.72" fill="#BA7517" fill-opacity="0.39"/>
<circle cx="504.9" cy="43.5" r="3.2" fill="#BA7517" fill-opacity="0.28"/>
<circle cx="503.1" cy="65.0" r="3.08" fill="#BA7517" fill-opacity="0.34"/>
<circle cx="514.5" cy="85.1" r="2.5" fill="#BA7517" fill-opacity="0.17"/>
<circle cx="504.3" cy="124.3" r="3.21" fill="#BA7517" fill-opacity="0.27"/>
<circle cx="506.9" cy="149.0" r="2.62" fill="#BA7517" fill-opacity="0.22"/>
<circle cx="512.6" cy="176.2" r="2.94" fill="#BA7517" fill-opacity="0.1"/>
<circle cx="510.4" cy="192.2" r="2.51" fill="#BA7517" fill-opacity="0.19"/>
<circle cx="504.6" cy="218.9" r="2.92" fill="#BA7517" fill-opacity="0.27"/>
<circle cx="504.5" cy="241.6" r="2.92" fill="#BA7517" fill-opacity="0.17"/>
<circle cx="504.3" cy="272.0" r="2.98" fill="#BA7517" fill-opacity="0.13"/>
<circle cx="509.4" cy="294.7" r="2.6" fill="#BA7517" fill-opacity="0.09"/>
<circle cx="509.4" cy="328.9" r="2.32" fill="#BA7517" fill-opacity="0.09"/>
<circle cx="537.5" cy="11.8" r="2.69" fill="#BA7517" fill-opacity="0.17"/>
<circle cx="541.1" cy="36.6" r="2.79" fill="#BA7517" fill-opacity="0.28"/>
<circle cx="533.6" cy="70.5" r="2.8" fill="#BA7517" fill-opacity="0.45"/>
<circle cx="530.5" cy="94.7" r="2.49" fill="#BA7517" fill-opacity="0.14"/>
<circle cx="540.4" cy="116.6" r="2.9" fill="#BA7517" fill-opacity="0.39"/>
<circle cx="540.1" cy="143.3" r="2.56" fill="#BA7517" fill-opacity="0.13"/>
<circle cx="535.5" cy="172.0" r="2.59" fill="#BA7517" fill-opacity="0.42"/>
<circle cx="536.5" cy="194.3" r="2.64" fill="#BA7517" fill-opacity="0.26"/>
<circle cx="531.7" cy="222.6" r="2.56" fill="#BA7517" fill-opacity="0.42"/>
<circle cx="534.6" cy="252.7" r="2.61" fill="#BA7517" fill-opacity="0.42"/>
<circle cx="529.6" cy="280.8" r="2.8" fill="#BA7517" fill-opacity="0.41"/>
<circle cx="528.5" cy="306.7" r="3.12" fill="#BA7517" fill-opacity="0.19"/>
<circle cx="536.5" cy="331.5" r="2.99" fill="#BA7517" fill-opacity="0.11"/>
<circle cx="557.0" cy="11.7" r="3.24" fill="#BA7517" fill-opacity="0.39"/>
<circle cx="556.4" cy="35.3" r="3.0" fill="#BA7517" fill-opacity="0.22"/>
<circle cx="559.2" cy="60.1" r="3.23" fill="#BA7517" fill-opacity="0.16"/>
<circle cx="566.4" cy="85.1" r="3.32" fill="#BA7517" fill-opacity="0.31"/>
<circle cx="554.4" cy="122.4" r="3.15" fill="#BA7517" fill-opacity="0.11"/>
<circle cx="561.6" cy="145.6" r="3.02" fill="#BA7517" fill-opacity="0.19"/>
<circle cx="562.0" cy="169.0" r="3.04" fill="#BA7517" fill-opacity="0.35"/>
<circle cx="560.0" cy="189.5" r="3.06" fill="#BA7517" fill-opacity="0.33"/>
<circle cx="557.2" cy="226.0" r="2.98" fill="#BA7517" fill-opacity="0.39"/>
<circle cx="556.4" cy="248.1" r="2.65" fill="#BA7517" fill-opacity="0.1"/>
<circle cx="559.9" cy="268.9" r="2.98" fill="#BA7517" fill-opacity="0.24"/>
<circle cx="554.4" cy="302.7" r="3.09" fill="#BA7517" fill-opacity="0.09"/>
<circle cx="564.8" cy="327.1" r="2.86" fill="#BA7517" fill-opacity="0.08"/>
<circle cx="585.2" cy="19.4" r="3.41" fill="#BA7517" fill-opacity="0.12"/>
<circle cx="593.9" cy="42.5" r="2.89" fill="#BA7517" fill-opacity="0.43"/>
<circle cx="593.7" cy="65.3" r="3.57" fill="#BA7517" fill-opacity="0.51"/>
<circle cx="582.3" cy="95.6" r="2.79" fill="#BA7517" fill-opacity="0.49"/>
<circle cx="584.9" cy="121.3" r="3.56" fill="#BA7517" fill-opacity="0.13"/>
<circle cx="583.8" cy="148.3" r="3.2" fill="#BA7517" fill-opacity="0.13"/>
<circle cx="592.8" cy="165.9" r="3.25" fill="#BA7517" fill-opacity="0.19"/>
<circle cx="584.4" cy="189.7" r="2.88" fill="#BA7517" fill-opacity="0.14"/>
<circle cx="593.1" cy="224.8" r="2.89" fill="#BA7517" fill-opacity="0.48"/>
<circle cx="590.9" cy="243.1" r="3.27" fill="#BA7517" fill-opacity="0.3"/>
<circle cx="585.0" cy="279.8" r="3.13" fill="#BA7517" fill-opacity="0.3"/>
<circle cx="592.3" cy="295.2" r="3.17" fill="#BA7517" fill-opacity="0.48"/>
<circle cx="585.5" cy="331.1" r="3.38" fill="#BA7517" fill-opacity="0.16"/>
<circle cx="614.1" cy="11.1" r="3.14" fill="#BA7517" fill-opacity="0.42"/>
<circle cx="608.5" cy="42.6" r="3.52" fill="#BA7517" fill-opacity="0.08"/>
<circle cx="609.6" cy="67.3" r="3.35" fill="#BA7517" fill-opacity="0.54"/>
<circle cx="606.5" cy="112.8" r="3.24" fill="#BA7517" fill-opacity="0.37"/>
<circle cx="613.2" cy="149.4" r="3.1" fill="#BA7517" fill-opacity="0.13"/>
<circle cx="611.0" cy="190.6" r="3.06" fill="#BA7517" fill-opacity="0.24"/>
<circle cx="614.2" cy="223.6" r="3.4" fill="#BA7517" fill-opacity="0.16"/>
<circle cx="612.7" cy="243.3" r="3.02" fill="#BA7517" fill-opacity="0.51"/>
<circle cx="608.1" cy="269.0" r="3.51" fill="#BA7517" fill-opacity="0.35"/>
<circle cx="617.0" cy="299.4" r="2.7" fill="#BA7517" fill-opacity="0.18"/>
<circle cx="615.1" cy="327.8" r="3.19" fill="#BA7517" fill-opacity="0.21"/>
<circle cx="638.3" cy="19.2" r="3.09" fill="#BA7517" fill-opacity="0.43"/>
<circle cx="644.8" cy="32.8" r="3.29" fill="#BA7517" fill-opacity="0.33"/>
<circle cx="635.5" cy="59.2" r="2.94" fill="#BA7517" fill-opacity="0.46"/>
<circle cx="639.8" cy="97.7" r="3.18" fill="#BA7517" fill-opacity="0.14"/>
<circle cx="640.6" cy="117.8" r="3.75" fill="#BA7517" fill-opacity="0.41"/>
<circle cx="634.6" cy="141.2" r="3.04" fill="#BA7517" fill-opacity="0.22"/>
<circle cx="644.6" cy="174.0" r="3.04" fill="#BA7517" fill-opacity="0.45"/>
<circle cx="644.0" cy="199.6" r="3.67" fill="#BA7517" fill-opacity="0.31"/>
<circle cx="638.5" cy="218.5" r="3.17" fill="#BA7517" fill-opacity="0.12"/>
<circle cx="632.7" cy="246.2" r="3.51" fill="#BA7517" fill-opacity="0.44"/>
<circle cx="644.0" cy="277.6" r="3.36" fill="#BA7517" fill-opacity="0.19"/>
<circle cx="638.2" cy="304.8" r="3.0" fill="#BA7517" fill-opacity="0.31"/>
<circle cx="641.1" cy="333.4" r="3.48" fill="#BA7517" fill-opacity="0.16"/>
<circle cx="658.4" cy="9.7" r="3.59" fill="#BA7517" fill-opacity="0.18"/>
<circle cx="671.4" cy="42.7" r="3.85" fill="#BA7517" fill-opacity="0.24"/>
<circle cx="662.8" cy="61.7" r="3.62" fill="#BA7517" fill-opacity="0.56"/>
<circle cx="667.9" cy="93.9" r="3.55" fill="#BA7517" fill-opacity="0.62"/>
<circle cx="670.0" cy="120.5" r="3.55" fill="#BA7517" fill-opacity="0.56"/>
<circle cx="668.4" cy="144.8" r="3.35" fill="#BA7517" fill-opacity="0.24"/>
<circle cx="666.9" cy="164.1" r="3.28" fill="#BA7517" fill-opacity="0.59"/>
<circle cx="658.6" cy="190.6" r="3.4" fill="#BA7517" fill-opacity="0.58"/>
<circle cx="660.2" cy="215.7" r="3.68" fill="#BA7517" fill-opacity="0.08"/>
<circle cx="667.1" cy="251.2" r="3.08" fill="#BA7517" fill-opacity="0.46"/>
<circle cx="666.5" cy="272.7" r="3.7" fill="#BA7517" fill-opacity="0.49"/>
<circle cx="670.7" cy="294.7" r="3.74" fill="#BA7517" fill-opacity="0.51"/>
<circle cx="671.4" cy="321.4" r="2.94" fill="#BA7517" fill-opacity="0.16"/>
<circle cx="684.8" cy="17.9" r="3.62" fill="#BA7517" fill-opacity="0.51"/>
<circle cx="695.9" cy="41.1" r="3.25" fill="#BA7517" fill-opacity="0.23"/>
<circle cx="685.7" cy="69.0" r="3.46" fill="#BA7517" fill-opacity="0.18"/>
<circle cx="690.2" cy="84.8" r="3.47" fill="#BA7517" fill-opacity="0.21"/>
<circle cx="694.3" cy="115.8" r="4.14" fill="#BA7517" fill-opacity="0.26"/>
<circle cx="691.4" cy="148.8" r="3.3" fill="#BA7517" fill-opacity="0.44"/>
<circle cx="690.1" cy="169.1" r="3.57" fill="#BA7517" fill-opacity="0.53"/>
<circle cx="694.2" cy="196.7" r="4.02" fill="#BA7517" fill-opacity="0.19"/>
<circle cx="685.6" cy="226.8" r="3.15" fill="#BA7517" fill-opacity="0.16"/>
<circle cx="687.1" cy="252.1" r="3.1" fill="#BA7517" fill-opacity="0.61"/>
<circle cx="691.2" cy="274.5" r="3.22" fill="#BA7517" fill-opacity="0.5"/>
<circle cx="691.2" cy="298.6" r="3.22" fill="#BA7517" fill-opacity="0.5"/>
<circle cx="697.5" cy="323.9" r="3.55" fill="#BA7517" fill-opacity="0.17"/>
<circle cx="717.4" cy="7.6" r="3.21" fill="#BA7517" fill-opacity="0.43"/>
<circle cx="721.4" cy="42.0" r="3.83" fill="#BA7517" fill-opacity="0.54"/>
<circle cx="715.4" cy="64.0" r="4.09" fill="#BA7517" fill-opacity="0.3"/>
<circle cx="711.6" cy="97.0" r="3.52" fill="#BA7517" fill-opacity="0.08"/>
<circle cx="714.1" cy="123.3" r="3.71" fill="#BA7517" fill-opacity="0.38"/>
<circle cx="722.8" cy="140.1" r="3.9" fill="#BA7517" fill-opacity="0.36"/>
<circle cx="721.0" cy="173.5" r="3.71" fill="#BA7517" fill-opacity="0.48"/>
<circle cx="715.0" cy="191.3" r="3.94" fill="#BA7517" fill-opacity="0.6"/>
<circle cx="720.8" cy="217.7" r="4.02" fill="#BA7517" fill-opacity="0.34"/>
<circle cx="718.5" cy="243.2" r="4.05" fill="#BA7517" fill-opacity="0.34"/>
<circle cx="713.7" cy="270.3" r="3.79" fill="#BA7517" fill-opacity="0.24"/>
<circle cx="722.2" cy="295.9" r="3.32" fill="#BA7517" fill-opacity="0.15"/>
<circle cx="715.0" cy="327.2" r="3.26" fill="#BA7517" fill-opacity="0.14"/>
<circle cx="739.1" cy="19.7" r="3.35" fill="#BA7517" fill-opacity="0.51"/>
<circle cx="750.0" cy="33.7" r="4.23" fill="#BA7517" fill-opacity="0.3"/>
<circle cx="747.6" cy="68.7" r="3.61" fill="#BA7517" fill-opacity="0.35"/>
<circle cx="745.4" cy="86.0" r="3.82" fill="#BA7517" fill-opacity="0.2"/>
<circle cx="737.0" cy="116.3" r="4.1" fill="#BA7517" fill-opacity="0.59"/>
<circle cx="743.5" cy="145.7" r="3.65" fill="#BA7517" fill-opacity="0.38"/>
<circle cx="744.9" cy="168.7" r="4.33" fill="#BA7517" fill-opacity="0.57"/>
<circle cx="742.5" cy="197.2" r="3.84" fill="#BA7517" fill-opacity="0.56"/>
<circle cx="739.7" cy="225.4" r="4.08" fill="#BA7517" fill-opacity="0.63"/>
<circle cx="746.3" cy="253.4" r="3.9" fill="#BA7517" fill-opacity="0.49"/>
<circle cx="742.8" cy="272.0" r="3.34" fill="#BA7517" fill-opacity="0.44"/>
<circle cx="742.4" cy="304.7" r="3.69" fill="#BA7517" fill-opacity="0.47"/>
<circle cx="740.0" cy="325.9" r="3.6" fill="#BA7517" fill-opacity="0.31"/>
<circle cx="768.3" cy="15.5" r="3.5" fill="#BA7517" fill-opacity="0.65"/>
<circle cx="771.7" cy="43.1" r="3.89" fill="#BA7517" fill-opacity="0.32"/>
<circle cx="776.2" cy="58.9" r="3.66" fill="#BA7517" fill-opacity="0.43"/>
<circle cx="773.5" cy="97.7" r="3.7" fill="#BA7517" fill-opacity="0.43"/>
<circle cx="770.6" cy="118.3" r="4.1" fill="#BA7517" fill-opacity="0.58"/>
<circle cx="771.5" cy="148.5" r="4.02" fill="#BA7517" fill-opacity="0.44"/>
<circle cx="775.8" cy="165.9" r="4.02" fill="#BA7517" fill-opacity="0.56"/>
<circle cx="773.2" cy="190.9" r="3.93" fill="#BA7517" fill-opacity="0.76"/>
<circle cx="763.4" cy="219.1" r="3.5" fill="#BA7517" fill-opacity="0.33"/>
<circle cx="768.4" cy="247.3" r="3.74" fill="#BA7517" fill-opacity="0.52"/>
<circle cx="766.3" cy="270.8" r="4.17" fill="#BA7517" fill-opacity="0.53"/>
<circle cx="769.9" cy="296.8" r="3.59" fill="#BA7517" fill-opacity="0.54"/>
<circle cx="765.5" cy="321.7" r="3.85" fill="#BA7517" fill-opacity="0.5"/>
<circle cx="797.5" cy="12.6" r="3.6" fill="#BA7517" fill-opacity="0.43"/>
<circle cx="802.1" cy="37.2" r="4.25" fill="#BA7517" fill-opacity="0.5"/>
<circle cx="800.1" cy="64.9" r="4.11" fill="#BA7517" fill-opacity="0.27"/>
<circle cx="790.4" cy="96.2" r="4.45" fill="#BA7517" fill-opacity="0.32"/>
<circle cx="792.4" cy="116.0" r="4.12" fill="#BA7517" fill-opacity="0.25"/>
<circle cx="791.3" cy="136.9" r="4.0" fill="#BA7517" fill-opacity="0.6"/>
<circle cx="792.1" cy="167.2" r="4.12" fill="#BA7517" fill-opacity="0.42"/>
<circle cx="797.6" cy="198.4" r="4.52" fill="#BA7517" fill-opacity="0.33"/>
<circle cx="800.6" cy="216.1" r="4.45" fill="#BA7517" fill-opacity="0.65"/>
<circle cx="799.6" cy="243.4" r="4.1" fill="#BA7517" fill-opacity="0.63"/>
<circle cx="788.9" cy="267.8" r="3.99" fill="#BA7517" fill-opacity="0.68"/>
<circle cx="792.2" cy="295.2" r="3.5" fill="#BA7517" fill-opacity="0.15"/>
<circle cx="799.5" cy="324.8" r="3.99" fill="#BA7517" fill-opacity="0.15"/>
<circle cx="825.8" cy="8.4" r="3.98" fill="#BA7517" fill-opacity="0.65"/>
<circle cx="825.7" cy="41.6" r="4.29" fill="#BA7517" fill-opacity="0.69"/>
<circle cx="826.5" cy="61.1" r="4.15" fill="#BA7517" fill-opacity="0.56"/>
<circle cx="825.1" cy="90.7" r="4.29" fill="#BA7517" fill-opacity="0.73"/>
<circle cx="818.4" cy="114.0" r="4.28" fill="#BA7517" fill-opacity="0.17"/>
<circle cx="815.6" cy="143.4" r="4.31" fill="#BA7517" fill-opacity="0.17"/>
<circle cx="821.7" cy="170.6" r="3.86" fill="#BA7517" fill-opacity="0.73"/>
<circle cx="826.5" cy="195.7" r="4.39" fill="#BA7517" fill-opacity="0.49"/>
<circle cx="826.5" cy="220.6" r="4.55" fill="#BA7517" fill-opacity="0.37"/>
<circle cx="815.8" cy="250.4" r="3.56" fill="#BA7517" fill-opacity="0.5"/>
<circle cx="823.3" cy="277.2" r="3.72" fill="#BA7517" fill-opacity="0.67"/>
<circle cx="828.5" cy="300.9" r="4.13" fill="#BA7517" fill-opacity="0.36"/>
<circle cx="815.2" cy="330.0" r="3.47" fill="#BA7517" fill-opacity="0.43"/>
<circle cx="852.9" cy="11.2" r="3.94" fill="#BA7517" fill-opacity="0.38"/>
<circle cx="851.6" cy="35.2" r="3.96" fill="#BA7517" fill-opacity="0.37"/>
<circle cx="848.6" cy="70.0" r="4.49" fill="#BA7517" fill-opacity="0.28"/>
<circle cx="846.5" cy="91.6" r="4.3" fill="#BA7517" fill-opacity="0.27"/>
<circle cx="854.5" cy="119.9" r="4.28" fill="#BA7517" fill-opacity="0.71"/>
<circle cx="845.3" cy="141.0" r="4.58" fill="#BA7517" fill-opacity="0.54"/>
<circle cx="851.8" cy="163.6" r="4.78" fill="#BA7517" fill-opacity="0.65"/>
<circle cx="848.5" cy="189.8" r="3.87" fill="#BA7517" fill-opacity="0.3"/>
<circle cx="843.5" cy="228.2" r="4.27" fill="#BA7517" fill-opacity="0.5"/>
<circle cx="851.9" cy="254.2" r="4.12" fill="#BA7517" fill-opacity="0.49"/>
<circle cx="849.6" cy="277.4" r="4.06" fill="#BA7517" fill-opacity="0.46"/>
<circle cx="843.8" cy="303.1" r="4.01" fill="#BA7517" fill-opacity="0.35"/>
<circle cx="842.2" cy="322.5" r="3.93" fill="#BA7517" fill-opacity="0.08"/>
<circle cx="879.7" cy="15.3" r="4.22" fill="#BA7517" fill-opacity="0.31"/>
<circle cx="877.9" cy="40.1" r="3.87" fill="#BA7517" fill-opacity="0.24"/>
<circle cx="872.8" cy="62.8" r="4.29" fill="#BA7517" fill-opacity="0.38"/>
<circle cx="880.0" cy="85.3" r="3.85" fill="#BA7517" fill-opacity="0.5"/>
<circle cx="868.6" cy="122.0" r="4.82" fill="#BA7517" fill-opacity="0.53"/>
<circle cx="873.2" cy="137.0" r="4.58" fill="#BA7517" fill-opacity="0.38"/>
<circle cx="880.0" cy="176.7" r="4.29" fill="#BA7517" fill-opacity="0.44"/>
<circle cx="868.3" cy="198.2" r="3.97" fill="#BA7517" fill-opacity="0.22"/>
<circle cx="867.1" cy="215.4" r="3.86" fill="#BA7517" fill-opacity="0.57"/>
<circle cx="880.4" cy="242.7" r="3.73" fill="#BA7517" fill-opacity="0.68"/>
<circle cx="867.2" cy="277.7" r="4.11" fill="#BA7517" fill-opacity="0.22"/>
<circle cx="869.5" cy="294.5" r="4.01" fill="#BA7517" fill-opacity="0.56"/>
<circle cx="878.9" cy="330.1" r="3.76" fill="#BA7517" fill-opacity="0.11"/>
<circle cx="902.9" cy="12.5" r="3.67" fill="#BA7517" fill-opacity="0.68"/>
<circle cx="893.2" cy="67.5" r="3.78" fill="#BA7517" fill-opacity="0.66"/>
<circle cx="897.4" cy="94.8" r="4.59" fill="#BA7517" fill-opacity="0.19"/>
<circle cx="899.8" cy="111.5" r="4.39" fill="#BA7517" fill-opacity="0.35"/>
<circle cx="899.1" cy="146.3" r="4.65" fill="#BA7517" fill-opacity="0.18"/>
<circle cx="898.1" cy="172.0" r="4.26" fill="#BA7517" fill-opacity="0.56"/>
<circle cx="898.4" cy="200.2" r="4.48" fill="#BA7517" fill-opacity="0.78"/>
<circle cx="900.9" cy="219.4" r="4.57" fill="#BA7517" fill-opacity="0.1"/>
<circle cx="902.8" cy="253.0" r="4.08" fill="#BA7517" fill-opacity="0.29"/>
<circle cx="906.7" cy="279.3" r="3.69" fill="#BA7517" fill-opacity="0.45"/>
<circle cx="899.0" cy="306.2" r="3.91" fill="#BA7517" fill-opacity="0.29"/>
<circle cx="901.4" cy="332.5" r="3.43" fill="#BA7517" fill-opacity="0.53"/>
<circle cx="919.1" cy="9.8" r="3.94" fill="#BA7517" fill-opacity="0.34"/>
<circle cx="930.5" cy="44.7" r="4.28" fill="#BA7517" fill-opacity="0.09"/>
<circle cx="930.5" cy="70.5" r="3.87" fill="#BA7517" fill-opacity="0.47"/>
<circle cx="931.0" cy="95.8" r="4.53" fill="#BA7517" fill-opacity="0.57"/>
<circle cx="923.9" cy="111.9" r="4.49" fill="#BA7517" fill-opacity="0.48"/>
<circle cx="921.9" cy="147.3" r="4.03" fill="#BA7517" fill-opacity="0.78"/>
<circle cx="927.6" cy="172.5" r="3.95" fill="#BA7517" fill-opacity="0.41"/>
<circle cx="922.7" cy="199.7" r="4.12" fill="#BA7517" fill-opacity="0.64"/>
<circle cx="920.3" cy="226.6" r="3.82" fill="#BA7517" fill-opacity="0.61"/>
<circle cx="927.2" cy="254.0" r="3.95" fill="#BA7517" fill-opacity="0.66"/>
<circle cx="925.8" cy="275.9" r="3.57" fill="#BA7517" fill-opacity="0.18"/>
<circle cx="921.6" cy="303.6" r="3.79" fill="#BA7517" fill-opacity="0.28"/>
<circle cx="924.7" cy="327.2" r="3.21" fill="#BA7517" fill-opacity="0.15"/>
<circle cx="959.1" cy="11.3" r="3.89" fill="#BA7517" fill-opacity="0.13"/>
<circle cx="956.2" cy="34.4" r="3.73" fill="#BA7517" fill-opacity="0.45"/>
<circle cx="952.4" cy="58.7" r="4.4" fill="#BA7517" fill-opacity="0.08"/>
<circle cx="957.3" cy="91.3" r="3.82" fill="#BA7517" fill-opacity="0.46"/>
<circle cx="956.1" cy="116.7" r="4.33" fill="#BA7517" fill-opacity="0.74"/>
<circle cx="956.6" cy="150.3" r="3.69" fill="#BA7517" fill-opacity="0.24"/>
<circle cx="948.0" cy="165.5" r="3.73" fill="#BA7517" fill-opacity="0.12"/>
<circle cx="953.0" cy="201.3" r="4.44" fill="#BA7517" fill-opacity="0.38"/>
<circle cx="957.9" cy="216.2" r="3.88" fill="#BA7517" fill-opacity="0.47"/>
<circle cx="946.9" cy="254.9" r="3.94" fill="#BA7517" fill-opacity="0.23"/>
<circle cx="954.1" cy="281.0" r="3.66" fill="#BA7517" fill-opacity="0.48"/>
<circle cx="951.5" cy="296.0" r="4.14" fill="#BA7517" fill-opacity="0.65"/>
<circle cx="948.3" cy="320.5" r="3.47" fill="#BA7517" fill-opacity="0.21"/>
<circle cx="983.9" cy="18.7" r="3.31" fill="#BA7517" fill-opacity="0.57"/>
<circle cx="982.3" cy="42.2" r="4.24" fill="#BA7517" fill-opacity="0.47"/>
<circle cx="972.0" cy="60.4" r="4.29" fill="#BA7517" fill-opacity="0.56"/>
<circle cx="980.7" cy="88.7" r="4.16" fill="#BA7517" fill-opacity="0.46"/>
<circle cx="972.7" cy="115.2" r="3.67" fill="#BA7517" fill-opacity="0.24"/>
<circle cx="978.0" cy="139.2" r="3.68" fill="#BA7517" fill-opacity="0.23"/>
<circle cx="980.7" cy="163.2" r="3.71" fill="#BA7517" fill-opacity="0.55"/>
<circle cx="971.8" cy="202.1" r="4.35" fill="#BA7517" fill-opacity="0.21"/>
<circle cx="983.4" cy="227.7" r="3.8" fill="#BA7517" fill-opacity="0.15"/>
<circle cx="972.6" cy="254.5" r="3.92" fill="#BA7517" fill-opacity="0.6"/>
<circle cx="977.6" cy="272.4" r="3.7" fill="#BA7517" fill-opacity="0.57"/>
<circle cx="980.1" cy="295.8" r="3.23" fill="#BA7517" fill-opacity="0.19"/>
<circle cx="981.3" cy="327.7" r="3.83" fill="#BA7517" fill-opacity="0.14"/>
<circle cx="1001.1" cy="11.8" r="3.43" fill="#BA7517" fill-opacity="0.15"/>
<circle cx="1009.1" cy="36.9" r="3.68" fill="#BA7517" fill-opacity="0.16"/>
<circle cx="1001.8" cy="71.0" r="4.23" fill="#BA7517" fill-opacity="0.13"/>
<circle cx="998.1" cy="97.1" r="3.61" fill="#BA7517" fill-opacity="0.5"/>
<circle cx="1004.0" cy="114.7" r="3.59" fill="#BA7517" fill-opacity="0.23"/>
<circle cx="1002.4" cy="150.7" r="4.27" fill="#BA7517" fill-opacity="0.72"/>
<circle cx="998.7" cy="167.1" r="3.49" fill="#BA7517" fill-opacity="0.65"/>
<circle cx="1007.5" cy="193.3" r="3.38" fill="#BA7517" fill-opacity="0.69"/>
<circle cx="1008.6" cy="220.1" r="3.31" fill="#BA7517" fill-opacity="0.15"/>
<circle cx="1009.0" cy="248.8" r="3.63" fill="#BA7517" fill-opacity="0.17"/>
<circle cx="1010.1" cy="270.7" r="3.29" fill="#BA7517" fill-opacity="0.39"/>
<circle cx="999.9" cy="304.6" r="3.26" fill="#BA7517" fill-opacity="0.46"/>
<circle cx="998.5" cy="321.1" r="3.47" fill="#BA7517" fill-opacity="0.39"/>
<circle cx="1027.3" cy="9.0" r="3.72" fill="#BA7517" fill-opacity="0.4"/>
<circle cx="1034.8" cy="40.4" r="3.2" fill="#BA7517" fill-opacity="0.18"/>
<circle cx="1033.7" cy="64.1" r="3.25" fill="#BA7517" fill-opacity="0.49"/>
<circle cx="1034.8" cy="89.2" r="4.02" fill="#BA7517" fill-opacity="0.57"/>
<circle cx="1030.3" cy="110.9" r="3.71" fill="#BA7517" fill-opacity="0.62"/>
<circle cx="1035.6" cy="140.6" r="4.02" fill="#BA7517" fill-opacity="0.17"/>
<circle cx="1028.6" cy="165.3" r="3.84" fill="#BA7517" fill-opacity="0.29"/>
<circle cx="1023.5" cy="196.4" r="3.76" fill="#BA7517" fill-opacity="0.34"/>
<circle cx="1025.1" cy="225.3" r="4.01" fill="#BA7517" fill-opacity="0.55"/>
<circle cx="1027.9" cy="251.4" r="3.83" fill="#BA7517" fill-opacity="0.28"/>
<circle cx="1024.3" cy="279.8" r="3.53" fill="#BA7517" fill-opacity="0.6"/>
<circle cx="1030.6" cy="301.2" r="3.01" fill="#BA7517" fill-opacity="0.35"/>
<circle cx="1037.0" cy="323.1" r="2.99" fill="#BA7517" fill-opacity="0.15"/>
<circle cx="1053.0" cy="17.5" r="3.1" fill="#BA7517" fill-opacity="0.08"/>
<circle cx="1057.9" cy="66.5" r="3.73" fill="#BA7517" fill-opacity="0.36"/>
<circle cx="1051.0" cy="96.7" r="3.21" fill="#BA7517" fill-opacity="0.48"/>
<circle cx="1051.2" cy="117.6" r="3.44" fill="#BA7517" fill-opacity="0.36"/>
<circle cx="1051.2" cy="142.5" r="3.73" fill="#BA7517" fill-opacity="0.14"/>
<circle cx="1061.6" cy="165.1" r="3.82" fill="#BA7517" fill-opacity="0.39"/>
<circle cx="1051.8" cy="200.7" r="3.5" fill="#BA7517" fill-opacity="0.61"/>
<circle cx="1055.4" cy="227.1" r="3.45" fill="#BA7517" fill-opacity="0.36"/>
<circle cx="1062.7" cy="252.3" r="3.23" fill="#BA7517" fill-opacity="0.24"/>
<circle cx="1054.2" cy="273.7" r="3.71" fill="#BA7517" fill-opacity="0.59"/>
<circle cx="1062.3" cy="305.2" r="2.92" fill="#BA7517" fill-opacity="0.48"/>
<circle cx="1056.8" cy="333.3" r="3.02" fill="#BA7517" fill-opacity="0.51"/>
<circle cx="1081.5" cy="14.9" r="3.36" fill="#BA7517" fill-opacity="0.24"/>
<circle cx="1076.6" cy="38.3" r="2.98" fill="#BA7517" fill-opacity="0.33"/>
<circle cx="1077.6" cy="72.0" r="3.86" fill="#BA7517" fill-opacity="0.48"/>
<circle cx="1084.5" cy="95.9" r="3.81" fill="#BA7517" fill-opacity="0.54"/>
<circle cx="1076.1" cy="119.7" r="3.68" fill="#BA7517" fill-opacity="0.21"/>
<circle cx="1079.4" cy="144.4" r="3.62" fill="#BA7517" fill-opacity="0.57"/>
<circle cx="1079.1" cy="170.3" r="3.91" fill="#BA7517" fill-opacity="0.3"/>
<circle cx="1079.6" cy="193.4" r="3.14" fill="#BA7517" fill-opacity="0.42"/>
<circle cx="1083.9" cy="228.7" r="3.21" fill="#BA7517" fill-opacity="0.33"/>
<circle cx="1082.1" cy="248.9" r="3.05" fill="#BA7517" fill-opacity="0.14"/>
<circle cx="1077.4" cy="271.7" r="3.16" fill="#BA7517" fill-opacity="0.27"/>
<circle cx="1079.0" cy="295.0" r="3.59" fill="#BA7517" fill-opacity="0.33"/>
<circle cx="1084.1" cy="327.9" r="2.9" fill="#BA7517" fill-opacity="0.36"/>
<circle cx="1111.6" cy="12.5" r="3.31" fill="#BA7517" fill-opacity="0.32"/>
<circle cx="1108.3" cy="36.6" r="3.02" fill="#BA7517" fill-opacity="0.18"/>
<circle cx="1108.9" cy="63.7" r="2.87" fill="#BA7517" fill-opacity="0.35"/>
<circle cx="1106.6" cy="96.6" r="3.41" fill="#BA7517" fill-opacity="0.18"/>
<circle cx="1108.6" cy="114.7" r="3.18" fill="#BA7517" fill-opacity="0.57"/>
<circle cx="1112.5" cy="139.1" r="3.69" fill="#BA7517" fill-opacity="0.09"/>
<circle cx="1107.9" cy="163.9" r="3.32" fill="#BA7517" fill-opacity="0.26"/>
<circle cx="1112.0" cy="190.7" r="3.75" fill="#BA7517" fill-opacity="0.17"/>
<circle cx="1112.0" cy="217.5" r="3.17" fill="#BA7517" fill-opacity="0.23"/>
<circle cx="1111.2" cy="250.1" r="3.54" fill="#BA7517" fill-opacity="0.47"/>
<circle cx="1108.9" cy="278.0" r="3.44" fill="#BA7517" fill-opacity="0.41"/>
<circle cx="1108.3" cy="304.8" r="3.51" fill="#BA7517" fill-opacity="0.38"/>
<circle cx="1138.5" cy="14.3" r="3.51" fill="#BA7517" fill-opacity="0.28"/>
<circle cx="1135.8" cy="38.1" r="3.49" fill="#BA7517" fill-opacity="0.42"/>
<circle cx="1136.3" cy="63.7" r="3.15" fill="#BA7517" fill-opacity="0.27"/>
<circle cx="1137.9" cy="88.6" r="3.26" fill="#BA7517" fill-opacity="0.24"/>
<circle cx="1133.2" cy="115.2" r="3.56" fill="#BA7517" fill-opacity="0.44"/>
<circle cx="1134.8" cy="143.1" r="3.07" fill="#BA7517" fill-opacity="0.15"/>
<circle cx="1129.8" cy="171.1" r="2.89" fill="#BA7517" fill-opacity="0.34"/>
<circle cx="1140.7" cy="193.7" r="3.5" fill="#BA7517" fill-opacity="0.45"/>
<circle cx="1141.2" cy="218.2" r="3.54" fill="#BA7517" fill-opacity="0.26"/>
<circle cx="1127.9" cy="242.1" r="3.19" fill="#BA7517" fill-opacity="0.32"/>
<circle cx="1140.7" cy="278.4" r="3.52" fill="#BA7517" fill-opacity="0.29"/>
<circle cx="1135.0" cy="301.0" r="2.94" fill="#BA7517" fill-opacity="0.35"/>
<circle cx="1132.8" cy="328.2" r="3.38" fill="#BA7517" fill-opacity="0.2"/>
<circle cx="1163.3" cy="13.4" r="2.87" fill="#BA7517" fill-opacity="0.1"/>
<circle cx="1159.5" cy="40.1" r="3.39" fill="#BA7517" fill-opacity="0.3"/>
<circle cx="1167.4" cy="65.2" r="3.16" fill="#BA7517" fill-opacity="0.25"/>
<circle cx="1167.8" cy="89.3" r="3.35" fill="#BA7517" fill-opacity="0.29"/>
<circle cx="1156.3" cy="115.1" r="3.43" fill="#BA7517" fill-opacity="0.5"/>
<circle cx="1161.0" cy="138.4" r="3.29" fill="#BA7517" fill-opacity="0.46"/>
<circle cx="1165.4" cy="176.9" r="3.02" fill="#BA7517" fill-opacity="0.45"/>
<circle cx="1156.1" cy="193.2" r="3.13" fill="#BA7517" fill-opacity="0.29"/>
<circle cx="1156.5" cy="217.9" r="3.19" fill="#BA7517" fill-opacity="0.34"/>
<circle cx="1158.8" cy="255.4" r="2.62" fill="#BA7517" fill-opacity="0.33"/>
<circle cx="1159.6" cy="278.6" r="3.16" fill="#BA7517" fill-opacity="0.18"/>
<circle cx="1153.9" cy="298.0" r="3.05" fill="#BA7517" fill-opacity="0.4"/>
<circle cx="1163.2" cy="322.7" r="2.92" fill="#BA7517" fill-opacity="0.25"/>
<circle cx="1183.7" cy="15.1" r="3.34" fill="#BA7517" fill-opacity="0.26"/>
<circle cx="1188.0" cy="38.0" r="2.6" fill="#BA7517" fill-opacity="0.11"/>
<circle cx="1190.6" cy="59.9" r="2.63" fill="#BA7517" fill-opacity="0.1"/>
<circle cx="1187.3" cy="96.1" r="3.26" fill="#BA7517" fill-opacity="0.31"/>
<circle cx="1180.8" cy="110.9" r="2.86" fill="#BA7517" fill-opacity="0.38"/>
<circle cx="1190.0" cy="141.8" r="2.77" fill="#BA7517" fill-opacity="0.13"/>
<circle cx="1181.3" cy="175.7" r="2.88" fill="#BA7517" fill-opacity="0.3"/>
<circle cx="1186.3" cy="194.6" r="3.33" fill="#BA7517" fill-opacity="0.08"/>
<circle cx="1188.1" cy="228.7" r="3.05" fill="#BA7517" fill-opacity="0.23"/>
<circle cx="1183.4" cy="242.1" r="3.26" fill="#BA7517" fill-opacity="0.43"/>
<circle cx="1184.4" cy="280.2" r="2.7" fill="#BA7517" fill-opacity="0.37"/>
<circle cx="1188.4" cy="307.2" r="3.21" fill="#BA7517" fill-opacity="0.24"/>
<circle cx="1183.4" cy="325.4" r="2.53" fill="#BA7517" fill-opacity="0.31"/>
</svg>